<svg width="566" height="565" viewBox="0 0 566 565" fill="none" xmlns="http://www.w3.org/2000/svg">
<g opacity="0.33">
<path d="M141.118 458.412H99.0083V458.746H141.118V458.412Z" fill="#E6E6E6"/>
<path d="M85.6837 458.412H61.2852V458.746H85.6837V458.412Z" fill="#E6E6E6"/>
<path d="M250.116 459.336H225.718V459.671H250.116V459.336Z" fill="#E6E6E6"/>
<path d="M377.334 464.804H322.421V465.139H377.334V464.804Z" fill="#E6E6E6"/>
<path d="M311.106 470.804H303.058V471.139H311.106V470.804Z" fill="#E6E6E6"/>
<path d="M558.816 463.336H439.71V463.671H558.816V463.336Z" fill="#E6E6E6"/>
<path d="M283.745 378.474H38.2471C36.3239 378.471 34.4806 377.664 33.1218 376.231C31.7631 374.798 31 372.857 31 370.832V7.57483C31.0167 5.56205 31.7873 3.6375 33.1442 2.21921C34.5011 0.800923 36.3348 0.00344801 38.2471 0H283.745C285.671 0 287.517 0.805111 288.879 2.23822C290.24 3.67132 291.005 5.61503 291.005 7.64175V370.832C291.005 372.859 290.24 374.803 288.879 376.236C287.517 377.669 285.671 378.474 283.745 378.474ZM38.2471 0.267663C36.4082 0.271208 34.6457 1.04263 33.3466 2.41261C32.0475 3.78258 31.3179 5.63917 31.3179 7.57483V370.832C31.3179 372.768 32.0475 374.625 33.3466 375.995C34.6457 377.365 36.4082 378.136 38.2471 378.139H283.745C285.585 378.136 287.349 377.365 288.65 375.995C289.951 374.626 290.684 372.769 290.687 370.832V7.57483C290.684 5.63794 289.951 3.78138 288.65 2.41179C287.349 1.0422 285.585 0.271201 283.745 0.267663H38.2471Z" fill="#E6E6E6"/>
<path d="M558.766 378.474H313.255C311.331 378.471 309.486 377.664 308.125 376.232C306.764 374.8 305.998 372.858 305.995 370.832V7.57483C306.015 5.56083 306.789 3.63629 308.147 2.21837C309.506 0.800455 311.341 0.0034104 313.255 0H558.766C560.676 0.00696523 562.506 0.805996 563.86 2.22391C565.215 3.64182 565.983 5.56436 566 7.57483V370.832C566 372.854 565.239 374.794 563.883 376.226C562.527 377.659 560.687 378.467 558.766 378.474V378.474ZM313.255 0.267663C311.415 0.271201 309.651 1.0422 308.35 2.41179C307.049 3.78138 306.316 5.63794 306.313 7.57483V370.832C306.316 372.769 307.049 374.626 308.35 375.995C309.651 377.365 311.415 378.136 313.255 378.139H558.766C560.606 378.136 562.37 377.365 563.671 375.995C564.972 374.626 565.704 372.769 565.708 370.832V7.57483C565.704 5.63794 564.972 3.78138 563.671 2.41179C562.37 1.0422 560.606 0.271201 558.766 0.267663H313.255Z" fill="#E6E6E6"/>
<path d="M322.396 323.844H294.438V440.585H322.396V323.844Z" fill="#E0E0E0"/>
<path d="M317.082 440.585H322.396V424.686H311.513L317.082 440.585Z" fill="#FAFAFA"/>
<path d="M199.882 323.844H171.924V440.585H199.882V323.844Z" fill="#E0E0E0"/>
<path d="M322.396 323.844H195.254V430.829H322.396V323.844Z" fill="#FAFAFA"/>
<path d="M317.781 329.104V357.409H199.832V329.104H317.743H317.781ZM318.239 328.582H199.374V357.918H318.277V328.582H318.239Z" fill="#E0E0E0"/>
<path d="M200.556 440.585H195.254V424.686H206.125L200.556 440.585Z" fill="#FAFAFA"/>
<path d="M256.016 343.25C256.016 343.835 256.18 344.406 256.489 344.893C256.798 345.379 257.237 345.758 257.75 345.982C258.264 346.206 258.829 346.265 259.374 346.15C259.919 346.036 260.419 345.755 260.812 345.341C261.205 344.927 261.473 344.4 261.581 343.827C261.69 343.253 261.634 342.658 261.421 342.118C261.209 341.577 260.849 341.115 260.387 340.79C259.924 340.465 259.381 340.292 258.825 340.292C258.08 340.292 257.366 340.604 256.839 341.158C256.312 341.713 256.016 342.465 256.016 343.25V343.25Z" fill="#E6E6E6"/>
<path d="M317.781 363.177V391.482H199.832V363.177H317.743H317.781ZM318.239 362.668H199.374V392.004H318.277V362.682L318.239 362.668Z" fill="#E0E0E0"/>
<path d="M256.016 377.403C256.016 377.988 256.18 378.56 256.489 379.047C256.798 379.533 257.237 379.912 257.75 380.136C258.264 380.36 258.829 380.418 259.374 380.304C259.919 380.19 260.419 379.908 260.812 379.495C261.205 379.081 261.473 378.554 261.581 377.98C261.69 377.407 261.634 376.812 261.421 376.272C261.209 375.731 260.849 375.269 260.387 374.944C259.924 374.619 259.381 374.446 258.825 374.446C258.08 374.446 257.366 374.757 256.839 375.312C256.312 375.867 256.016 376.619 256.016 377.403Z" fill="#E6E6E6"/>
<path d="M317.781 397.264V425.583H199.832V397.264H317.743H317.781ZM318.239 396.742H199.374V426.091H318.277V396.742H318.239Z" fill="#E0E0E0"/>
<path d="M256.016 411.423C256.018 412.008 256.185 412.578 256.495 413.063C256.806 413.547 257.245 413.924 257.759 414.146C258.273 414.368 258.837 414.425 259.381 414.309C259.926 414.193 260.425 413.911 260.817 413.496C261.208 413.082 261.475 412.555 261.582 411.982C261.69 411.409 261.633 410.815 261.42 410.275C261.207 409.735 260.847 409.274 260.385 408.95C259.923 408.625 259.381 408.452 258.825 408.452C258.455 408.452 258.089 408.529 257.747 408.679C257.406 408.828 257.095 409.047 256.834 409.323C256.573 409.599 256.366 409.927 256.226 410.287C256.085 410.648 256.014 411.034 256.016 411.423V411.423Z" fill="#E6E6E6"/>
<path d="M182.807 256.045H154.849V440.598H182.807V256.045Z" fill="#E0E0E0"/>
<path d="M177.493 440.585H182.807V424.686H171.937L177.493 440.585Z" fill="#FAFAFA"/>
<path d="M78.3223 256.045H50.3638V440.598H78.3223V256.045Z" fill="#E0E0E0"/>
<path d="M182.807 256.045H73.6816V430.842H182.807V256.045Z" fill="#FAFAFA"/>
<path d="M178.103 260.97V300.544H78.3857V260.97H178.103ZM178.688 260.368H77.7754V301.12H178.662V260.382L178.688 260.368Z" fill="#E0E0E0"/>
<path d="M178.103 305.375V410.339H130.603V305.375H178.103ZM178.688 304.76H130.031V410.955H178.688V304.76Z" fill="#E0E0E0"/>
<path d="M125.886 305.375V410.339H78.3857V305.375H125.886ZM126.458 304.76H77.7754V410.955H126.433V304.76H126.458Z" fill="#E0E0E0"/>
<path d="M78.9962 440.585H73.6816V424.686H84.565L78.9962 440.585Z" fill="#FAFAFA"/>
<path d="M125.428 280.777C125.426 281.366 125.589 281.941 125.898 282.432C126.206 282.922 126.646 283.305 127.162 283.532C127.677 283.759 128.245 283.82 128.794 283.706C129.342 283.593 129.846 283.311 130.242 282.896C130.638 282.482 130.908 281.952 131.018 281.375C131.128 280.799 131.073 280.201 130.86 279.657C130.646 279.113 130.285 278.649 129.82 278.321C129.356 277.994 128.81 277.82 128.251 277.82C127.504 277.82 126.788 278.131 126.259 278.685C125.73 279.24 125.432 279.992 125.428 280.777Z" fill="#E6E6E6"/>
<path d="M135.498 355.361C135.498 355.949 135.663 356.524 135.974 357.013C136.285 357.502 136.726 357.883 137.243 358.107C137.759 358.332 138.328 358.39 138.875 358.274C139.423 358.158 139.926 357.874 140.32 357.457C140.715 357.04 140.983 356.51 141.09 355.933C141.197 355.355 141.14 354.758 140.924 354.215C140.709 353.672 140.345 353.209 139.879 352.884C139.413 352.56 138.866 352.388 138.307 352.39C137.937 352.39 137.571 352.467 137.229 352.617C136.887 352.766 136.577 352.985 136.316 353.261C136.055 353.537 135.848 353.865 135.708 354.225C135.567 354.586 135.496 354.972 135.498 355.361V355.361Z" fill="#E6E6E6"/>
<path d="M115.372 355.362C115.374 355.946 115.541 356.517 115.851 357.001C116.162 357.486 116.601 357.863 117.115 358.085C117.629 358.306 118.193 358.363 118.737 358.247C119.282 358.132 119.781 357.849 120.173 357.435C120.564 357.021 120.831 356.494 120.938 355.92C121.046 355.347 120.989 354.753 120.776 354.213C120.563 353.674 120.203 353.213 119.741 352.888C119.279 352.564 118.737 352.391 118.181 352.391C117.811 352.391 117.445 352.468 117.103 352.617C116.761 352.767 116.451 352.986 116.19 353.262C115.929 353.538 115.722 353.865 115.582 354.226C115.441 354.586 115.37 354.972 115.372 355.362V355.362Z" fill="#E6E6E6"/>
<path d="M112.193 204.587H100.406C101.493 210.606 102.177 216.696 102.453 222.815C102.453 229.507 93.4773 256.045 106.268 256.045C119.058 256.045 110.082 229.574 110.082 222.815C110.38 216.695 111.085 210.604 112.193 204.587V204.587Z" fill="#E0E0E0"/>
<path d="M67.3496 231.729V239.758C67.363 244.063 68.9935 248.187 71.8852 251.231C74.7769 254.275 78.6951 255.991 82.7846 256.005H90.4131C94.5026 255.991 98.4208 254.275 101.313 251.231C104.204 248.187 105.835 244.063 105.848 239.758V231.729H67.3496Z" fill="#F5F5F5"/>
<path d="M231.197 306.821C231.197 316.189 241.152 323.844 253.32 323.844H264.305C276.472 323.844 286.428 316.189 286.428 306.821H231.197Z" fill="#E0E0E0"/>
<path d="M522.276 293.09C515.613 298.818 506.408 309.297 497.992 324.045C492.372 333.868 488.99 344.12 487.502 357.744C487.502 342.353 487.591 325.825 487.642 310.22C489.333 306.205 493.198 296.944 495.97 289.637C505.213 265.24 508.684 259.231 516.987 238.193C528.086 210.088 539.453 176.818 536.198 179.481C529.561 184.901 504.133 235.021 501.386 242.194C493.901 261.338 489.273 281.585 487.668 302.217C487.668 287.496 487.769 274.113 487.82 263.727C487.998 229.855 488.545 218.921 488.812 215.548C489.842 213.835 491.05 211.841 491.762 210.771C497.737 201.67 500.039 193.935 505.658 180.364C513.643 161.159 520.508 127.046 518.5 128.759C510.134 135.932 503.548 151.323 494.877 170.956C486.206 190.589 488.685 201.871 486.968 218.626C486.612 221.919 486.333 234.338 486.129 251.535C483.892 233.201 479.67 221.129 471.978 210.155C462.519 196.651 453.365 187.537 446.652 182.773C439.939 178.009 458.247 211.172 466.994 225.599C474.788 238.5 481.972 249.863 486.066 261.064C485.85 284.391 485.748 313.914 485.748 341.363C483.739 328.863 480.459 315.386 476.085 304.961C470.821 292.434 462.735 273.216 456.289 266.699C454.751 265.133 463.028 302.512 468.342 312.442C473.657 322.372 477.56 331.754 480.904 337.388C481.679 338.726 484.273 343.772 485.748 346.689C485.748 380.241 485.926 409.844 486.206 419.922H487.579C487.49 417.325 487.464 400.248 487.502 377.658C490.821 365.399 498.398 351.4 504.654 338.633C511.469 324.808 528.938 287.402 522.276 293.09Z" fill="#E0E0E0"/>
<path d="M506.803 440.585H466.957L463.943 399.472H509.816L506.803 440.585Z" fill="#F0F0F0"/>
<path d="M512.779 404.264H460.969L459.494 390.385H514.266L512.779 404.264Z" fill="#F5F5F5"/>
<path d="M140.406 27.4355H69.1426V109.809H140.406V27.4355Z" fill="#E0E0E0"/>
<path d="M148.123 27.4355H74.5078V109.809H148.123V27.4355Z" fill="#F5F5F5"/>
<path d="M141.957 103.318V33.9263L80.6742 33.9263V103.318H141.957Z" fill="white"/>
<path d="M127.094 86.4816V50.7354H95.5244V86.4816H127.094Z" fill="#F5F5F5"/>
<path d="M503.764 37.0312H437.562V113.556H503.764V37.0312Z" fill="#E0E0E0"/>
<path d="M510.935 37.0312H442.558V113.556H510.935V37.0312Z" fill="#F5F5F5"/>
<path d="M505.213 107.52V43.0669L448.292 43.0669V107.52H505.213Z" fill="white"/>
<path d="M476.747 93.9896C486.556 93.9896 494.508 85.619 494.508 75.2934C494.508 64.9677 486.556 56.5972 476.747 56.5972C466.937 56.5972 458.985 64.9677 458.985 75.2934C458.985 85.619 466.937 93.9896 476.747 93.9896Z" fill="#F5F5F5"/>
<path d="M214.44 76.5513H161.575V137.659H214.44V76.5513Z" fill="#E0E0E0"/>
<path d="M220.162 76.5513H165.554V137.659H220.162V76.5513Z" fill="#F5F5F5"/>
<path d="M215.584 132.841V81.3691H170.131V132.841H215.584Z" fill="white"/>
<path d="M192.864 94.083L180.43 116.754H205.299L192.864 94.083Z" fill="#F5F5F5"/>
</g>
<path d="M290.578 478.149C433.887 478.149 550.063 471.367 550.063 463C550.063 454.633 433.887 447.85 290.578 447.85C147.268 447.85 31.0928 454.633 31.0928 463C31.0928 471.367 147.268 478.149 290.578 478.149Z" fill="#F5F5F5"/>
<path d="M423.405 124.662L410.129 119.309C410.129 119.309 392.61 151.254 387.591 152.873C380.766 155.068 366.633 161.171 358.256 162.242C357.118 163.58 355.258 167.742 355.432 169.254C366.687 173.015 391.419 168.023 396.719 164.088C408.777 155.162 423.405 124.662 423.405 124.662Z" fill="#E58A7B"/>
<path d="M427.486 117.395C429.962 126.535 416.552 144.924 416.552 144.924L398.98 135.074C398.98 135.074 402.273 127.512 406.288 119.817C412.725 107.384 424.663 106.969 427.486 117.395Z" fill="#066B38"/>
<path opacity="0.2" d="M481.506 121.394C483.982 130.534 470.572 148.923 470.572 148.923L453 139.073C453 139.073 456.292 131.511 460.307 123.816C466.744 111.383 478.682 110.968 481.506 121.394Z" fill="black"/>
<path opacity="0.2" d="M405.953 139.008L412.872 142.889L414.09 121.65C410.062 124.742 407.225 134.057 405.953 139.008Z" fill="black"/>
<path d="M415.924 110.516C415.924 110.516 402.246 140.949 410.222 197.613H464.116C464.973 189.342 462.135 148.979 472.4 110.007C466.488 108.852 460.506 108.087 454.494 107.719C446.867 107.277 439.222 107.277 431.595 107.719C426.308 108.255 421.07 109.191 415.924 110.516Z" fill="#066B38"/>
<path opacity="0.2" d="M415.199 110.129C415.199 110.129 401.521 140.562 409.498 197.226H463.392C464.248 188.955 461.411 148.592 471.676 109.62C465.764 108.465 459.782 107.7 453.769 107.331C446.143 106.89 438.497 106.89 430.871 107.331C425.584 107.868 420.345 108.803 415.199 110.129Z" fill="#066B38"/>
<g style="mix-blend-mode:multiply">
<path d="M403.424 464.204C403.343 465.65 423.779 466.814 449.06 466.814C474.341 466.814 494.924 465.65 495.004 464.204C495.084 462.759 474.662 461.608 449.368 461.608C424.074 461.608 403.517 462.772 403.424 464.204Z" fill="#E8ECF1"/>
</g>
<path d="M439.398 426.227L429.839 429.927L438.073 451.198L447.632 447.498L439.398 426.227Z" fill="#E58A7B"/>
<path d="M482.023 453.913H471.945L468.251 430.586H478.329L482.023 453.913Z" fill="#E58A7B"/>
<path d="M471.249 452.749H482.571C482.767 452.749 482.957 452.819 483.107 452.947C483.256 453.074 483.356 453.251 483.387 453.444L484.846 462.398C484.877 462.622 484.859 462.851 484.794 463.068C484.728 463.285 484.617 463.485 484.467 463.656C484.317 463.826 484.132 463.962 483.925 464.054C483.718 464.146 483.494 464.193 483.267 464.191C479.319 464.124 477.419 463.883 472.44 463.883C469.375 463.883 463.072 464.205 458.816 464.205C454.56 464.205 454.279 460.029 456.032 459.641C463.902 457.941 466.953 455.626 469.576 453.378C470.039 452.971 470.633 452.748 471.249 452.749V452.749Z" fill="#263238"/>
<path d="M437.791 449.296L448.498 446.164C448.689 446.11 448.893 446.123 449.075 446.201C449.258 446.279 449.408 446.417 449.502 446.592L453.517 454.622C453.61 454.826 453.657 455.047 453.656 455.271C453.655 455.496 453.605 455.717 453.509 455.919C453.414 456.122 453.275 456.301 453.103 456.445C452.931 456.588 452.729 456.692 452.513 456.75C448.618 457.821 446.009 458.476 441.137 459.895C437.778 460.872 434.352 462.465 431.033 463.522C428.731 464.258 423.324 464.285 420.527 464.285C416.392 464.285 415.468 459.922 417.248 459.721C421.732 459.226 422.334 459.453 424.81 458.209C428.861 456.438 432.533 453.902 435.623 450.741C436.206 450.077 436.954 449.578 437.791 449.296V449.296Z" fill="#263238"/>
<path d="M359.942 162.188L348.86 157.544L344.297 169.83C348.839 170.521 353.459 170.521 358.001 169.83L359.942 162.188Z" fill="#E58A7B"/>
<path d="M340.617 157.223L340.322 165.386L344.297 169.803L348.861 157.517L340.617 157.223Z" fill="#E58A7B"/>
<path d="M440.71 428.033L431.121 431.735L435.368 442.734L444.956 439.032L440.71 428.033Z" fill="#CF6F64"/>
<path d="M478.329 430.586H468.251L470.165 442.617H480.243L478.329 430.586Z" fill="#CF6F64"/>
<path opacity="0.2" d="M408.509 182.29C408.71 184.712 408.938 187.188 409.232 189.731L449.301 176.722C455.558 174.868 460.997 170.935 464.718 165.574C464.879 162.001 465.08 158.24 465.387 154.319C465.521 152.419 465.682 150.465 465.856 148.484C466.03 146.503 466.271 144.308 466.525 142.194L408.509 182.29Z" fill="black"/>
<path d="M421.598 138.393L420.259 138.232C421.049 131.541 426.041 126.268 431.3 126.401V127.74C426.697 127.646 422.307 132.397 421.598 138.393Z" fill="white"/>
<path d="M428.731 150.746H428.503V149.407C433.107 149.581 437.43 144.777 438.139 138.794L439.478 138.955C438.768 145.499 433.937 150.746 428.731 150.746Z" fill="white"/>
<path d="M453.744 81.9297C451.857 89.3038 449.635 102.807 454.493 107.719C454.493 107.719 451.094 115.2 437.403 115.2C424.89 115.2 431.595 107.719 431.595 107.719C439.919 105.765 440.066 99.6891 438.969 93.9343L453.744 81.9297Z" fill="#E58A7B"/>
<path d="M447.722 86.8276L438.982 93.9341C439.253 95.2565 439.41 96.5997 439.451 97.949C442.007 100.492 447.133 94.0545 447.655 90.7623C447.92 89.4661 447.943 88.132 447.722 86.8276Z" fill="#CF6F64"/>
<path d="M423.953 81.8356C424.561 82.8896 425.38 83.8068 426.359 84.5299C427.338 85.2529 428.455 85.7663 429.641 86.0379C432.853 86.7472 434.459 83.7896 433.576 80.8185C432.786 78.1419 430.15 74.5418 426.884 75.1575C426.185 75.3016 425.53 75.6111 424.975 76.0603C424.419 76.5095 423.98 77.0852 423.693 77.7391C423.406 78.3931 423.28 79.1063 423.325 79.819C423.37 80.5318 423.586 81.2233 423.953 81.8356V81.8356Z" fill="#CF6F64"/>
<path d="M429.267 58.2417C424.261 60.5302 422.495 80.4175 428.785 83.3618C435.075 86.3061 438.742 53.8922 429.267 58.2417Z" fill="#263238"/>
<path d="M455.27 70.8347C454.065 80.8185 453.931 86.6937 448.578 91.806C446.919 93.5025 444.824 94.7076 442.523 95.2882C440.223 95.8689 437.806 95.8024 435.541 95.0963C433.276 94.3901 431.25 93.0717 429.687 91.2867C428.124 89.5016 427.084 87.3192 426.683 84.9806C425.064 76.0139 427.299 61.1988 437.31 57.2241C439.413 56.2963 441.726 55.9481 444.009 56.2154C446.292 56.4826 448.463 57.3558 450.295 58.7442C452.127 60.1327 453.554 61.9859 454.429 64.1118C455.304 66.2377 455.594 68.5589 455.27 70.8347V70.8347Z" fill="#E58A7B"/>
<path d="M438.822 63.4073C446.236 61.5203 451.683 60.2355 449.729 66.4051C447.146 74.6491 444.041 82.6254 448.203 82.9868C450.746 83.2143 461.988 78.4499 460.556 73.6186C459.311 69.4163 464.571 68.2654 465.508 66.1374C468.974 58.4288 459.057 59.4459 460.823 54.7618C462.59 50.0777 452.794 42.5297 447.44 46.2903C438.728 52.3662 423.779 52.2726 431.635 42.2754C437.269 35.1422 427.219 36.6009 427.219 36.6009C427.219 36.6009 433.294 40.201 423.07 45.7684C412.256 51.7105 422.173 67.6765 438.822 63.4073Z" fill="#263238"/>
<path d="M459.204 81.8356C457.741 83.9535 455.541 85.4514 453.035 86.0379C449.729 86.7472 448.458 83.7896 449.702 80.8185C450.813 78.1419 453.864 74.5418 457.023 75.1575C460.181 75.7731 460.904 79.2125 459.204 81.8356Z" fill="#E58A7B"/>
<path d="M410.222 197.613C410.222 197.613 401.175 278.581 400.466 309.308C399.743 341.267 431.127 440.984 431.127 440.984L447.186 434.293C447.186 434.293 428.45 343.181 431.127 311.797C433.964 277.577 445.687 197.666 445.687 197.666L410.222 197.613Z" fill="#066B38"/>
<path opacity="0.2" d="M432.706 219.842C425.492 234.804 430.35 264.395 434.258 281.926C435.744 269.547 437.51 256.11 439.183 243.677C439.023 224.566 437.537 209.805 432.706 219.842Z" fill="black"/>
<path d="M446.477 428.994C446.557 428.994 448.377 434.106 448.377 434.106L429.855 441.895L426.938 436.461L446.477 428.994Z" fill="#066B38"/>
<path d="M429.347 197.613C429.347 197.613 436.266 274.619 440.843 303.46C445.875 335.057 465.601 440.289 465.601 440.289H484.057C484.057 440.289 473.002 337.613 470.915 306.324C468.639 272.384 464.116 197.613 464.116 197.613H429.347Z" fill="#066B38"/>
<path d="M484.338 435.484C484.418 435.484 484.953 440.637 484.953 440.637H464.665L463.219 434.721L484.338 435.484Z" fill="#066B38"/>
<path opacity="0.2" d="M477.271 429.381C477.229 429.382 477.189 429.367 477.157 429.34C477.125 429.313 477.104 429.276 477.097 429.234C476.99 428.297 467.02 335.553 465.146 307.448C463.112 276.961 459.017 209.337 458.977 208.654C458.975 208.632 458.978 208.609 458.985 208.588C458.992 208.567 459.004 208.548 459.019 208.532C459.034 208.515 459.052 208.502 459.073 208.493C459.093 208.484 459.115 208.48 459.137 208.48V208.48C459.181 208.48 459.224 208.496 459.256 208.526C459.288 208.556 459.308 208.597 459.311 208.641C459.311 209.323 463.447 276.894 465.481 307.435C467.354 335.539 477.325 428.217 477.419 429.221C477.422 429.243 477.421 429.266 477.416 429.287C477.41 429.309 477.4 429.33 477.387 429.347C477.373 429.365 477.355 429.379 477.335 429.39C477.316 429.4 477.294 429.407 477.271 429.408V429.381Z" fill="black"/>
<path d="M439.959 73.6186C439.959 74.435 439.451 75.0908 438.915 75.0908C438.38 75.0908 437.992 74.435 438.045 73.6186C438.099 72.8023 438.554 72.1465 439.089 72.1465C439.625 72.1465 440.013 72.8156 439.959 73.6186Z" fill="#263238"/>
<path d="M430.779 73.6186C430.779 74.435 430.257 75.0908 429.735 75.0908C429.213 75.0908 428.811 74.435 428.851 73.6186C428.892 72.8023 429.373 72.1465 429.909 72.1465C430.444 72.1465 430.832 72.8156 430.779 73.6186Z" fill="#263238"/>
<path d="M433.669 74.0337C432.552 76.5266 431.112 78.8618 429.387 80.9795C430.725 82.3178 433.228 81.7022 433.228 81.7022L433.669 74.0337Z" fill="#DF5753"/>
<path d="M433.91 85.1148C433.879 85.1148 433.848 85.1086 433.82 85.0963C433.791 85.084 433.766 85.066 433.744 85.0435C433.723 85.0209 433.706 84.9942 433.696 84.9651C433.685 84.9359 433.681 84.9049 433.683 84.8739C433.686 84.8088 433.714 84.7475 433.762 84.7027C433.809 84.6578 433.872 84.6329 433.937 84.633C434.96 84.6401 435.973 84.4178 436.899 83.9824C437.825 83.547 438.642 82.9096 439.29 82.117C439.336 82.0765 439.396 82.0542 439.457 82.0542C439.519 82.0542 439.578 82.0765 439.625 82.117C439.668 82.1619 439.692 82.2219 439.692 82.2843C439.692 82.3467 439.668 82.4066 439.625 82.4516C438.931 83.2939 438.058 83.9704 437.069 84.4312C436.08 84.8921 435.001 85.1256 433.91 85.1148V85.1148Z" fill="#263238"/>
<path d="M441.592 71.1559C441.528 71.1888 441.457 71.206 441.385 71.206C441.313 71.206 441.242 71.1888 441.177 71.1559C440.677 70.8323 440.107 70.6309 439.514 70.5682C438.921 70.5054 438.322 70.583 437.765 70.7946C437.71 70.8218 437.651 70.8378 437.59 70.8417C437.53 70.8456 437.469 70.8373 437.412 70.8174C437.354 70.7974 437.301 70.7662 437.256 70.7255C437.211 70.6848 437.175 70.6355 437.149 70.5805C437.099 70.4614 437.098 70.3276 437.146 70.2076C437.193 70.0876 437.286 69.9909 437.403 69.9381C438.103 69.6523 438.861 69.5396 439.614 69.6095C440.366 69.6794 441.091 69.9298 441.726 70.3396C441.777 70.3744 441.821 70.4192 441.855 70.4711C441.889 70.5231 441.912 70.5813 441.923 70.6423C441.935 70.7033 441.934 70.7659 441.92 70.8265C441.907 70.8871 441.882 70.9445 441.846 70.9953C441.779 71.0721 441.691 71.1278 441.592 71.1559V71.1559Z" fill="#263238"/>
<path d="M427.232 68.4794C427.161 68.4622 427.096 68.4251 427.045 68.3724C427 68.3288 426.965 68.2767 426.941 68.2193C426.917 68.1618 426.904 68.1001 426.904 68.0378C426.904 67.9755 426.917 67.9138 426.941 67.8563C426.965 67.7989 427 67.7468 427.045 67.7032C427.558 67.1279 428.197 66.6788 428.912 66.391C429.627 66.1031 430.398 65.9843 431.167 66.0437C431.228 66.0532 431.287 66.0753 431.34 66.1085C431.393 66.1417 431.438 66.1854 431.473 66.2368C431.508 66.2882 431.533 66.3463 431.544 66.4075C431.556 66.4687 431.555 66.5316 431.542 66.5924C431.513 66.7163 431.44 66.8255 431.336 66.8995C431.233 66.9734 431.106 67.007 430.98 66.9939V66.9939C430.371 66.9556 429.763 67.0562 429.199 67.2881C428.636 67.5199 428.132 67.877 427.727 68.3322C427.666 68.4 427.588 68.4495 427.501 68.4755C427.413 68.5015 427.32 68.5028 427.232 68.4794V68.4794Z" fill="#263238"/>
<path d="M477.579 123.176L463.661 119.469C463.661 119.469 450.01 153.074 445.179 155.256C438.621 158.253 422.013 168.639 414.946 173.55C414.558 175.223 414.866 179.653 415.749 180.871C427.794 178.676 450.853 169.803 455.671 165.293C466.659 155.001 477.579 123.176 477.579 123.176Z" fill="#E58A7B"/>
<path d="M467.863 454.515C467.184 454.569 466.508 454.384 465.95 453.993C465.777 453.837 465.648 453.639 465.576 453.419C465.503 453.198 465.489 452.963 465.535 452.735C465.543 452.593 465.59 452.455 465.67 452.338C465.75 452.22 465.861 452.126 465.99 452.066C467.114 451.49 470.259 453.484 470.62 453.712C470.66 453.736 470.691 453.773 470.708 453.817C470.725 453.86 470.727 453.908 470.714 453.953C470.703 453.999 470.679 454.042 470.647 454.078C470.614 454.113 470.572 454.139 470.527 454.153C469.654 454.368 468.761 454.489 467.863 454.515ZM466.525 452.427C466.424 452.405 466.319 452.405 466.217 452.427C466.166 452.453 466.123 452.494 466.095 452.544C466.066 452.593 466.053 452.651 466.057 452.708C466.021 452.864 466.027 453.026 466.074 453.179C466.121 453.332 466.207 453.469 466.324 453.578C466.846 454.046 468.158 454.1 469.884 453.765C468.856 453.088 467.699 452.633 466.485 452.427H466.525Z" fill="#407BFF"/>
<path d="M470.459 454.154C470.425 454.165 470.387 454.165 470.352 454.154C469.349 453.592 467.462 451.383 467.743 450.259C467.785 450.081 467.885 449.922 468.028 449.808C468.172 449.694 468.349 449.631 468.532 449.63C468.712 449.606 468.894 449.621 469.068 449.674C469.241 449.728 469.401 449.817 469.536 449.938C470.647 450.888 470.714 453.806 470.714 453.953C470.72 453.997 470.712 454.042 470.69 454.081C470.668 454.119 470.634 454.15 470.593 454.167C470.548 454.176 470.502 454.172 470.459 454.154ZM468.666 450.072H468.572C468.265 450.072 468.224 450.246 468.211 450.313C468.05 450.969 469.241 452.641 470.232 453.431C470.227 452.3 469.877 451.198 469.228 450.273C469.073 450.137 468.872 450.065 468.666 450.072V450.072Z" fill="#407BFF"/>
<path d="M432.331 452.842C431.512 453.127 430.621 453.127 429.802 452.842C429.616 452.741 429.458 452.595 429.344 452.417C429.229 452.24 429.161 452.036 429.146 451.825C429.129 451.692 429.146 451.558 429.195 451.434C429.244 451.31 429.324 451.2 429.427 451.115C430.498 450.152 434.874 451.115 435.369 451.303C435.416 451.315 435.458 451.343 435.487 451.382C435.516 451.421 435.531 451.468 435.53 451.517C435.532 451.567 435.519 451.617 435.493 451.66C435.466 451.703 435.428 451.737 435.383 451.758C434.397 452.203 433.376 452.565 432.331 452.842V452.842ZM430.15 451.249C429.997 451.28 429.854 451.349 429.735 451.45C429.692 451.482 429.66 451.525 429.641 451.575C429.622 451.625 429.617 451.679 429.628 451.731C429.637 451.872 429.68 452.008 429.755 452.127C429.83 452.246 429.933 452.345 430.056 452.414C430.765 452.788 432.411 452.494 434.539 451.597C433.106 451.236 431.622 451.118 430.15 451.249V451.249Z" fill="#407BFF"/>
<path d="M435.342 451.758H435.235C433.897 451.517 431.22 449.978 431.14 448.827C431.14 448.56 431.261 448.185 431.903 447.971C432.12 447.894 432.35 447.861 432.58 447.875C432.81 447.888 433.035 447.948 433.241 448.051C434.687 448.76 435.449 451.33 435.49 451.45C435.499 451.491 435.498 451.533 435.486 451.573C435.474 451.613 435.453 451.649 435.423 451.678C435.403 451.711 435.375 451.738 435.342 451.758V451.758ZM432.171 448.372H432.037C431.622 448.52 431.622 448.694 431.622 448.747C431.622 449.443 433.562 450.714 434.914 451.143C434.603 450.068 433.944 449.126 433.041 448.466C432.772 448.329 432.462 448.296 432.171 448.372Z" fill="#407BFF"/>
<path d="M416.084 172.761L402.125 179.185L400.506 183.2L405.658 186.666C405.658 186.666 415.294 185.622 418.038 179.426L416.084 172.761Z" fill="#E58A7B"/>
<path d="M416.673 181.098C416.361 178.416 415.476 175.833 414.077 173.523L416.285 171.864C417.946 174.525 419.006 177.516 419.39 180.63L416.673 181.098Z" fill="#263238"/>
<path d="M419.055 174.661C419.35 175.125 419.495 175.669 419.47 176.218C419.445 176.768 419.252 177.296 418.916 177.732C418.58 178.167 418.118 178.489 417.593 178.652C417.068 178.816 416.505 178.814 415.981 178.647C415.457 178.479 414.998 178.154 414.665 177.716C414.332 177.279 414.143 176.749 414.122 176.199C414.101 175.65 414.249 175.107 414.548 174.645C414.846 174.183 415.28 173.824 415.789 173.617C416.361 173.326 417.025 173.272 417.637 173.467C418.248 173.663 418.758 174.092 419.055 174.661V174.661Z" fill="#263238"/>
<path d="M392.69 184.377L394.551 186.251L407.077 180.898L402.126 179.185L392.69 184.377Z" fill="#E58A7B"/>
<path opacity="0.2" d="M446.639 428.799C446.719 428.799 448.539 433.912 448.539 433.912L430.017 441.7L427.1 436.267L446.639 428.799Z" fill="black"/>
<path opacity="0.2" d="M485.119 435.763C485.199 435.763 485.734 440.915 485.734 440.915H465.445L464 435L485.119 435.763Z" fill="black"/>
<path d="M481.206 119.322C484.887 131.193 470.5 147.426 470.5 147.426L450.626 139.316C452.982 132.455 455.698 125.723 458.763 119.148C464.866 105.992 477.486 107.344 481.206 119.322Z" fill="#066B38"/>
<path opacity="0.2" d="M427.44 118.856C430.863 129.899 417.483 145 417.483 145L399 137.456C401.191 131.073 403.717 124.811 406.567 118.695C412.243 106.457 423.98 107.714 427.44 118.856Z" fill="black"/>
<path d="M391.767 6.56934H233.846L219.152 335.419H377.072L391.767 6.56934Z" fill="#0B9D3D"/>
<path opacity="0.07" d="M378.313 235.5H220.392L205.684 564.35H363.605L378.313 235.5Z" fill="#066B38"/>
<path d="M364.372 159.03H229.577L228.453 184.19H363.248L364.372 159.03Z" fill="white"/>
<path d="M303.706 140.668H230.394L229.898 151.923H303.211L303.706 140.668Z" fill="#26D34C"/>
<path d="M361.334 226.936H226.54L225.416 252.096H360.21L361.334 226.936Z" fill="white"/>
<path opacity="0.47" d="M331.996 291H241.352L240 321.152H330.644L331.996 291Z" fill="#26D34C"/>
<path d="M330.553 320.912H239.909C239.87 320.922 239.828 320.922 239.789 320.912C239.775 320.873 239.775 320.83 239.789 320.791L241.127 290.626C241.127 290.605 241.131 290.585 241.139 290.566C241.148 290.547 241.16 290.53 241.175 290.516C241.19 290.503 241.208 290.492 241.227 290.486C241.247 290.479 241.267 290.476 241.288 290.478H331.931C331.948 290.47 331.966 290.466 331.985 290.466C332.003 290.466 332.022 290.47 332.038 290.478C332.048 290.495 332.053 290.513 332.053 290.532C332.053 290.551 332.048 290.569 332.038 290.585L330.727 320.818C330.711 320.849 330.686 320.875 330.654 320.892C330.623 320.909 330.588 320.915 330.553 320.912V320.912ZM240.07 320.59H330.392L331.731 290.746H241.408L240.07 320.59Z" fill="white"/>
<path d="M287.874 208.574H227.356L226.861 219.842H287.366L287.874 208.574Z" fill="#26D34C"/>
<path d="M334.889 77.7542C334.543 85.0767 331.939 92.1125 327.435 97.8958C324.1 102.264 319.809 105.811 314.891 108.263C309.973 110.715 304.558 112.008 299.063 112.042C294.622 112.076 290.221 111.2 286.131 109.469C282.041 107.737 278.35 105.187 275.283 101.975C272.216 98.7625 269.839 94.9565 268.299 90.791C266.759 86.6255 266.088 82.1889 266.328 77.7542C266.798 68.552 270.767 59.8772 277.421 53.5039C284.076 47.1305 292.913 43.54 302.127 43.4667C306.572 43.4253 310.977 44.2956 315.072 46.024C319.167 47.7524 322.863 50.302 325.934 53.5154C329.004 56.7288 331.383 60.5377 332.923 64.7068C334.464 68.8758 335.133 73.3164 334.889 77.7542V77.7542Z" fill="white"/>
<path d="M338.114 50.6399C338.027 52.5869 337.335 54.4582 336.134 55.9932C335.245 57.1534 334.103 58.0954 332.795 58.7471C331.487 59.3989 330.047 59.7432 328.586 59.7538C327.17 59.7624 325.773 59.4242 324.518 58.7686C323.263 58.1131 322.187 57.1602 321.385 55.9932C320.324 54.4162 319.798 52.5391 319.887 50.6399C320.016 48.1967 321.072 45.8949 322.841 44.2038C324.609 42.5128 326.955 41.5599 329.402 41.5394C330.582 41.5286 331.752 41.7597 332.84 42.2183C333.927 42.6768 334.91 43.3533 335.726 44.2059C336.542 45.0585 337.175 46.0692 337.586 47.1757C337.997 48.2823 338.177 49.4612 338.114 50.6399V50.6399Z" fill="#16D34C"/>
<path d="M244.098 171.61C244.034 172.688 243.563 173.702 242.781 174.447C241.999 175.192 240.963 175.613 239.883 175.625C239.361 175.631 238.844 175.53 238.363 175.328C237.881 175.127 237.447 174.829 237.086 174.452C236.724 174.076 236.444 173.63 236.262 173.141C236.08 172.652 236.001 172.131 236.028 171.61C236.086 170.529 236.555 169.511 237.339 168.765C238.122 168.019 239.162 167.6 240.244 167.595C240.765 167.591 241.281 167.693 241.762 167.895C242.242 168.097 242.676 168.396 243.036 168.772C243.397 169.147 243.678 169.593 243.86 170.081C244.043 170.569 244.124 171.089 244.098 171.61V171.61Z" fill="#263238"/>
<path d="M262.139 171.61C262.077 172.689 261.608 173.705 260.825 174.451C260.042 175.197 259.004 175.616 257.923 175.625C257.402 175.629 256.887 175.527 256.407 175.325C255.928 175.122 255.495 174.824 255.135 174.447C254.775 174.071 254.496 173.626 254.315 173.138C254.134 172.65 254.055 172.13 254.082 171.61C254.14 170.532 254.607 169.516 255.388 168.77C256.168 168.024 257.204 167.604 258.284 167.595C258.806 167.589 259.323 167.69 259.804 167.891C260.285 168.093 260.72 168.391 261.081 168.767C261.442 169.144 261.723 169.59 261.905 170.079C262.086 170.568 262.166 171.089 262.139 171.61V171.61Z" fill="#263238"/>
<path d="M280.192 171.61C280.131 172.689 279.661 173.705 278.878 174.451C278.095 175.197 277.058 175.616 275.977 175.625C275.456 175.629 274.939 175.527 274.459 175.325C273.979 175.122 273.545 174.824 273.184 174.448C272.823 174.072 272.543 173.627 272.36 173.139C272.178 172.651 272.097 172.13 272.122 171.61C272.183 170.53 272.653 169.515 273.436 168.769C274.219 168.023 275.257 167.603 276.338 167.595C276.86 167.589 277.377 167.69 277.858 167.891C278.339 168.093 278.774 168.391 279.135 168.767C279.496 169.144 279.776 169.59 279.958 170.079C280.14 170.568 280.22 171.089 280.192 171.61V171.61Z" fill="#263238"/>
<path d="M241.06 239.516C240.996 240.594 240.525 241.608 239.743 242.353C238.96 243.098 237.925 243.519 236.844 243.53C236.323 243.535 235.807 243.433 235.327 243.23C234.846 243.028 234.413 242.73 234.052 242.354C233.691 241.978 233.411 241.532 233.228 241.044C233.045 240.556 232.964 240.036 232.99 239.516C233.051 238.436 233.521 237.42 234.304 236.674C235.087 235.929 236.124 235.509 237.206 235.501C237.727 235.496 238.243 235.599 238.723 235.801C239.203 236.003 239.637 236.301 239.998 236.677C240.359 237.053 240.639 237.499 240.822 237.987C241.004 238.475 241.085 238.995 241.06 239.516Z" fill="#263238"/>
<path d="M259.1 239.516C259.039 240.593 258.572 241.607 257.791 242.352C257.011 243.097 255.977 243.519 254.898 243.53C254.377 243.537 253.859 243.436 253.378 243.234C252.897 243.033 252.463 242.734 252.101 242.358C251.74 241.982 251.46 241.535 251.278 241.046C251.096 240.557 251.016 240.036 251.044 239.516C251.105 238.436 251.575 237.42 252.358 236.675C253.141 235.929 254.178 235.509 255.26 235.501C255.78 235.496 256.296 235.598 256.775 235.801C257.255 236.003 257.688 236.302 258.048 236.678C258.407 237.054 258.687 237.5 258.868 237.988C259.049 238.476 259.128 238.996 259.1 239.516V239.516Z" fill="#263238"/>
<path d="M277.195 239.516C277.133 240.595 276.664 241.611 275.881 242.357C275.098 243.102 274.06 243.522 272.979 243.531C272.458 243.533 271.943 243.429 271.464 243.226C270.984 243.023 270.551 242.725 270.191 242.35C269.83 241.974 269.55 241.529 269.367 241.042C269.183 240.555 269.101 240.036 269.125 239.516C269.189 238.437 269.66 237.423 270.442 236.678C271.224 235.933 272.26 235.512 273.34 235.501C273.862 235.495 274.379 235.595 274.86 235.797C275.341 235.999 275.776 236.297 276.137 236.673C276.498 237.05 276.779 237.496 276.961 237.985C277.142 238.474 277.222 238.995 277.195 239.516V239.516Z" fill="#263238"/>
<path d="M295.208 239.516C295.144 240.594 294.673 241.608 293.891 242.353C293.109 243.098 292.073 243.519 290.993 243.53C290.472 243.533 289.957 243.429 289.477 243.226C288.998 243.023 288.565 242.725 288.204 242.35C287.844 241.974 287.564 241.529 287.38 241.042C287.197 240.555 287.115 240.036 287.138 239.516C287.203 238.437 287.673 237.423 288.456 236.678C289.238 235.933 290.274 235.512 291.354 235.501C291.875 235.496 292.391 235.599 292.872 235.801C293.352 236.003 293.786 236.301 294.146 236.677C294.507 237.053 294.788 237.499 294.97 237.987C295.153 238.475 295.234 238.995 295.208 239.516V239.516Z" fill="#263238"/>
<path d="M313.329 239.516C313.264 240.594 312.794 241.608 312.011 242.353C311.229 243.098 310.193 243.519 309.113 243.53C308.591 243.537 308.074 243.436 307.593 243.234C307.112 243.033 306.677 242.734 306.316 242.358C305.955 241.982 305.675 241.535 305.493 241.046C305.311 240.557 305.231 240.036 305.259 239.516C305.32 238.436 305.79 237.42 306.573 236.674C307.356 235.929 308.393 235.509 309.474 235.501C309.995 235.496 310.512 235.599 310.992 235.801C311.472 236.003 311.906 236.301 312.267 236.677C312.628 237.053 312.908 237.499 313.091 237.987C313.273 238.475 313.354 238.995 313.329 239.516Z" fill="#263238"/>
<path d="M310.59 75.9681C316.192 70.4904 316.489 61.7101 311.254 56.3569C306.019 51.0038 297.234 51.1048 291.633 56.5826C286.031 62.0604 285.734 70.8406 290.969 76.1938C296.204 81.5469 304.988 81.4459 310.59 75.9681Z" fill="#26D34C"/>
<path d="M327.435 97.8954C324.1 102.264 319.809 105.81 314.891 108.262C309.973 110.715 304.558 112.007 299.062 112.041C293.733 112.087 288.475 110.82 283.751 108.353C279.027 105.886 274.983 102.295 271.975 97.8954C278.479 91.418 288.771 87.189 300.173 87.189C311.576 87.189 321.506 91.418 327.435 97.8954Z" fill="#26D34C"/>
<path opacity="0.1" d="M310.28 57.2044C315.422 62.4622 315.464 70.7147 310.429 75.6378C305.395 80.561 297.146 80.3345 292.004 75.0766C286.862 69.8187 286.82 61.5662 291.854 56.6431C296.889 51.7199 305.138 51.9465 310.28 57.2044Z" fill="white" stroke="black"/>
<path d="M130.529 190.253C129.258 193.036 127.919 196.101 126.755 199.072C125.591 202.043 124.399 205.108 123.369 208.159C121.265 214.173 119.662 220.35 118.578 226.628L118.283 228.595C118.255 228.933 118.287 229.273 118.377 229.599C118.693 230.708 119.19 231.757 119.849 232.704C121.568 235.154 123.562 237.399 125.791 239.396C128.142 241.582 130.608 243.642 133.179 245.565C135.748 247.546 138.452 249.473 141.115 251.293L138.612 255.991C132.253 253.22 126.217 249.76 120.612 245.672C117.622 243.491 114.923 240.937 112.582 238.071C111.194 236.364 110.112 234.431 109.384 232.356C108.96 231.06 108.743 229.705 108.741 228.341C108.741 228.02 108.741 227.551 108.741 227.324V226.668L108.875 225.33C109.642 218.357 111.108 211.48 113.251 204.8C114.295 201.508 115.406 198.229 116.677 195.031C117.949 191.832 119.26 188.7 120.88 185.448L130.529 190.253Z" fill="#E58A7B"/>
<path d="M139.228 250.463L148.69 245.672L146.241 256.057C146.241 256.057 139.75 257.877 136.739 254.719L139.228 250.463Z" fill="#E58A7B"/>
<path d="M157.349 247.372L154.833 255.963L146.241 256.057L148.69 245.672L157.349 247.372Z" fill="#E58A7B"/>
<path d="M170.705 140.146C171.211 142.001 171.916 143.796 172.806 145.5C172.546 145.795 172.211 146.014 171.836 146.134C171.462 146.254 171.061 146.271 170.678 146.182L170.705 140.146Z" fill="#DF5753"/>
<path d="M170.424 140.227C170.978 140.227 171.428 139.538 171.428 138.688C171.428 137.838 170.978 137.148 170.424 137.148C169.87 137.148 169.42 137.838 169.42 138.688C169.42 139.538 169.87 140.227 170.424 140.227Z" fill="#263238"/>
<path d="M170.129 137.202L172.164 136.626C172.164 136.626 171.173 138.206 170.129 137.202Z" fill="#263238"/>
<path d="M144.568 149.969C145.786 156.192 147.004 167.608 142.641 171.77C142.641 171.77 144.354 178.087 155.93 178.087C168.657 178.087 162.006 171.77 162.006 171.77C155.06 170.111 155.234 164.958 156.452 160.114L144.568 149.969Z" fill="#E58A7B"/>
<path d="M141.182 135.783C141.824 146.182 141.878 150.598 147.124 155.938C155.033 163.968 167.667 160.917 170.143 150.585C172.378 141.217 170.959 125.8 160.774 121.664C158.539 120.743 156.105 120.408 153.704 120.69C151.303 120.972 149.013 121.861 147.051 123.275C145.09 124.688 143.521 126.579 142.494 128.768C141.467 130.957 141.015 133.371 141.182 135.783V135.783Z" fill="#E58A7B"/>
<path d="M142.212 124.086C136.993 125.987 130.034 124.568 132.764 140.668C135.655 157.718 131.211 163.326 131.211 163.326C131.211 163.326 151.005 167.541 171.214 163.071C171.214 163.071 165.044 152.285 166.77 144.335C168.979 134.298 167.239 130.59 167.239 130.59C167.239 130.59 149.546 121.41 142.212 124.086Z" fill="#263238"/>
<path d="M164.294 141.203C164.3 143.181 164.866 145.116 165.927 146.784C167.346 148.952 169.019 148.122 169.434 145.821C169.808 143.8 169.527 140.226 167.721 138.835C165.914 137.443 164.321 138.808 164.294 141.203Z" fill="#E58A7B"/>
<path d="M137.675 125.84C136.176 121.624 143.323 115.133 158.446 117.81C173.569 120.486 174.225 133.08 174.225 133.08L171.173 129.44L171.307 133.267L155.769 136.252L137.675 125.84Z" fill="#263238"/>
<path d="M138.96 172.48C138.871 171.869 139.024 171.247 139.387 170.747C139.749 170.247 140.292 169.908 140.901 169.803C145.612 169.027 156.318 167.448 161.698 168.197C165.713 168.759 166.757 171.088 166.931 173.002C166.958 173.337 166.914 173.674 166.8 173.99C166.686 174.307 166.506 174.595 166.271 174.836C166.036 175.077 165.753 175.265 165.44 175.387C165.127 175.509 164.791 175.563 164.455 175.544L141.195 174.501C140.647 174.473 140.125 174.257 139.718 173.888C139.311 173.52 139.043 173.023 138.96 172.48V172.48Z" fill="#153A08"/>
<path d="M152.41 406.282L161.042 412.278L175.483 392.699L166.851 386.716L152.41 406.282Z" fill="#E58A7B"/>
<path d="M132.282 405.895L141.396 411.087L154.177 390.384L145.063 385.191L132.282 405.895Z" fill="#E58A7B"/>
<path d="M175.47 392.699L168.029 402.789L159.396 396.807L166.837 386.716L175.47 392.699Z" fill="#CF6F64"/>
<path d="M145.049 385.191L154.177 390.397L147.592 401.063L138.465 395.857L145.049 385.191Z" fill="#CF6F64"/>
<path d="M159.691 237.843C159.691 237.843 193.389 280.307 187.059 320.925C181.96 353.727 152.384 398.146 152.384 398.146L138.479 391.24C148.28 371.6 156.644 351.276 163.505 330.427C165.621 323.954 166.238 317.085 165.311 310.338C164.384 303.592 161.936 297.144 158.152 291.482C141.075 266.55 113.72 281.391 132.122 237.843H159.691Z" fill="#153A08"/>
<path opacity="0.4" d="M176.219 265.118L171.321 260.246C171.321 260.634 180.809 319.212 183.473 335.673C185.044 330.865 186.248 325.943 187.073 320.952C190.204 301.024 183.66 280.669 176.219 265.118Z" fill="black"/>
<path d="M174.733 237.843C174.733 237.843 215.311 291.215 216.462 323.214C217.412 349.98 172.298 401.839 172.298 401.839L159.182 393.354C159.182 393.354 185.587 356.524 192.238 326.439C189.669 296.621 135.333 237.843 135.333 237.843H174.733Z" fill="#153A08"/>
<path d="M124.533 174.153C120.197 175.183 116.035 190.949 116.035 190.949L132.992 202.271C132.992 202.271 138.639 189.798 136.659 184.337C134.611 178.65 129.98 172.855 124.533 174.153Z" fill="#066B38"/>
<path opacity="0.2" d="M127.853 184.311L126.675 198.055L132.978 202.284C134.719 198.366 136.007 194.262 136.819 190.052L127.853 184.311Z" fill="black"/>
<path d="M179.752 174.461C179.752 174.461 184.757 176.214 174.733 237.83H132.095C132.817 220.431 132.831 209.725 124.533 174.153C130.504 172.922 136.555 172.126 142.641 171.771C149.087 171.308 155.559 171.308 162.006 171.771C170.33 172.533 179.752 174.461 179.752 174.461Z" fill="#066B38"/>
<path d="M184.088 184.311C185.052 186.987 186.069 189.865 187.14 192.635C188.21 195.405 189.227 198.256 190.311 201.066L193.59 209.471L194.42 211.572L194.848 212.616L195.049 213.138C195.049 213.231 195.049 213.231 195.049 213.218C194.804 212.873 194.484 212.589 194.112 212.388C193.583 212.077 192.986 211.898 192.372 211.866C191.863 211.85 191.356 211.946 190.887 212.147C190.271 212.428 190.271 212.549 190.285 212.535C190.396 212.446 190.495 212.343 190.579 212.228C191.32 211.255 191.961 210.21 192.493 209.109C193.122 207.878 193.724 206.567 194.326 205.242C195.504 202.565 196.588 199.795 197.672 196.998C198.756 194.201 199.787 191.377 200.79 188.526L203.842 179.988L208.994 181.326C207.977 187.429 206.666 193.371 205.086 199.42C204.323 202.431 203.427 205.416 202.41 208.427C201.901 209.939 201.339 211.438 200.697 212.977C200.027 214.648 199.203 216.252 198.234 217.768C197.878 218.279 197.485 218.762 197.056 219.214C196.373 219.952 195.544 220.54 194.621 220.94C193.802 221.292 192.915 221.456 192.024 221.422C191.027 221.385 190.055 221.095 189.201 220.579C188.192 219.95 187.356 219.081 186.765 218.049C186.564 217.701 186.39 217.353 186.27 217.099L186.015 216.591L185.507 215.547L184.49 213.472C183.151 210.689 181.813 207.878 180.649 205.054C179.484 202.23 178.253 199.367 177.102 196.489C175.951 193.612 174.921 190.734 173.944 187.63L184.088 184.311Z" fill="#E58A7B"/>
<path d="M179.752 174.461C184.878 175.678 190.646 190.828 190.646 190.828L175.403 203.796C175.403 203.796 165.539 187.282 167.533 181.835C169.608 176.16 173.061 172.868 179.752 174.461Z" fill="#066B38"/>
<path d="M206.264 175.197L211.617 170.727L215.337 176.521L212.594 181.353C212.594 181.353 208.231 185.368 204.377 183.32C203.765 181.945 203.618 180.408 203.959 178.942C204.299 177.476 205.108 176.161 206.264 175.197V175.197Z" fill="#E58A7B"/>
<path d="M221.28 170.74L220.878 172.199L212.407 173.617L211.577 170.727L221.28 170.74Z" fill="#E58A7B"/>
<path d="M173.342 402.522L158.058 392.645L160.802 387.881L177.972 398.44L173.342 402.522Z" fill="#153A08"/>
<path d="M147.378 410.391C146.037 410.227 144.749 409.77 143.604 409.053C143.557 409.036 143.516 409.006 143.487 408.965C143.458 408.924 143.442 408.875 143.442 408.825C143.442 408.775 143.458 408.727 143.487 408.686C143.516 408.645 143.557 408.614 143.604 408.598C144.019 408.464 147.619 407.353 148.663 408.21C148.78 408.307 148.869 408.434 148.921 408.578C148.973 408.721 148.985 408.876 148.957 409.026C148.939 409.267 148.859 409.499 148.725 409.701C148.592 409.902 148.409 410.066 148.195 410.177C147.944 410.314 147.664 410.387 147.378 410.391V410.391ZM144.367 408.919C146.04 409.776 147.378 410.083 148.021 409.762C148.16 409.685 148.278 409.573 148.362 409.437C148.447 409.301 148.495 409.146 148.502 408.986C148.502 408.772 148.502 408.678 148.382 408.625C147.82 408.17 145.812 408.518 144.34 408.919H144.367Z" fill="#263238"/>
<path d="M143.698 409.147C143.627 409.146 143.56 409.117 143.51 409.066C143.49 409.029 143.48 408.988 143.48 408.946C143.48 408.904 143.49 408.862 143.51 408.825C143.51 408.705 144.38 405.801 145.745 405.145C145.92 405.066 146.109 405.024 146.301 405.024C146.492 405.024 146.682 405.066 146.856 405.145C147.044 405.204 147.207 405.325 147.318 405.487C147.43 405.65 147.484 405.845 147.472 406.042C147.378 407.246 144.929 408.906 143.805 409.187L143.698 409.147ZM146.294 405.493C146.164 405.497 146.036 405.529 145.919 405.587C145.09 405.988 144.407 407.554 144.072 408.504C145.25 408.009 146.869 406.698 146.923 405.961C146.923 405.841 146.923 405.694 146.615 405.56C146.515 405.506 146.406 405.47 146.294 405.453V405.493Z" fill="#263238"/>
<path d="M166.476 416.173C164.964 416.173 162.863 414.232 161.712 413.041C161.682 413 161.667 412.951 161.667 412.901C161.667 412.85 161.682 412.801 161.712 412.76C161.738 412.717 161.776 412.682 161.82 412.658C161.865 412.635 161.915 412.624 161.966 412.626C162.501 412.626 167.145 413.322 167.801 414.634C167.87 414.751 167.907 414.885 167.907 415.022C167.907 415.158 167.87 415.292 167.801 415.41C167.703 415.614 167.554 415.79 167.369 415.921C167.184 416.052 166.969 416.134 166.744 416.159L166.476 416.173ZM162.595 413.229C164.281 414.861 165.767 415.771 166.61 415.664C166.758 415.645 166.898 415.59 167.02 415.503C167.141 415.417 167.239 415.302 167.306 415.169C167.336 415.123 167.352 415.07 167.352 415.015C167.352 414.961 167.336 414.907 167.306 414.861C166.958 414.139 164.482 413.523 162.595 413.229Z" fill="#263238"/>
<path d="M162.742 413.161C162.441 413.17 162.141 413.148 161.845 413.095C161.804 413.088 161.765 413.072 161.732 413.046C161.699 413.02 161.674 412.986 161.658 412.947C161.638 412.908 161.627 412.864 161.627 412.82C161.627 412.776 161.638 412.732 161.658 412.693C161.738 412.599 163.545 410.418 165.258 410.271C165.743 410.233 166.223 410.387 166.596 410.699C167.118 411.154 167.091 411.556 166.958 411.81C166.623 412.72 164.308 413.161 162.742 413.161ZM162.394 412.666C163.893 412.747 166.288 412.251 166.596 411.596C166.596 411.596 166.703 411.382 166.355 411.087C166.217 410.967 166.055 410.876 165.88 410.821C165.705 410.766 165.521 410.747 165.338 410.766C164.184 411.088 163.157 411.756 162.394 412.68V412.666Z" fill="#263238"/>
<path d="M144.059 407.701L132.711 404.489C132.515 404.43 132.304 404.445 132.119 404.531C131.934 404.618 131.787 404.77 131.707 404.958L127.879 413.563C127.789 413.783 127.747 414.02 127.755 414.258C127.764 414.496 127.822 414.73 127.927 414.943C128.032 415.157 128.181 415.346 128.364 415.498C128.547 415.65 128.761 415.761 128.99 415.825C133.005 416.869 134.932 417.163 139.924 418.595C143.002 419.452 147.392 421.044 151.634 422.249C155.877 423.453 157.295 419.318 155.649 418.434C148.208 414.5 147.619 411.743 145.585 408.799C145.221 408.265 144.681 407.877 144.059 407.701V407.701Z" fill="black"/>
<path d="M162.019 411.475L152.33 404.784C152.166 404.664 151.963 404.609 151.761 404.628C151.559 404.648 151.371 404.741 151.233 404.891L144.809 411.796C144.652 411.975 144.535 412.185 144.466 412.412C144.397 412.639 144.377 412.878 144.407 413.113C144.438 413.349 144.518 413.575 144.642 413.777C144.767 413.979 144.933 414.153 145.13 414.286C148.543 416.574 150.309 417.498 154.578 420.455C157.255 422.275 162.434 426.317 166.048 428.833C169.661 431.349 172.351 427.896 171.066 426.531C165.312 420.388 164.054 416.534 163.103 413.041C162.938 412.407 162.554 411.853 162.019 411.475Z" fill="black"/>
<path d="M154.164 399.029L136.699 390.344L138.505 385.606L157.161 394.76L154.164 399.029Z" fill="#153A08"/>
<path d="M131.453 235.327L129.98 239.181C129.833 239.475 130.181 239.783 130.676 239.783H174.948C175.336 239.783 175.657 239.596 175.684 239.355L176.058 235.527C176.058 235.273 175.751 235.046 175.336 235.046H132.148C132.018 235.033 131.887 235.052 131.766 235.101C131.645 235.15 131.538 235.228 131.453 235.327V235.327Z" fill="#0F9314"/>
<path opacity="0.4" d="M30.972 201.781L29.4999 205.636C29.3527 205.93 29.7006 206.238 30.1958 206.238H74.4671C74.8552 206.238 75.1764 206.05 75.2032 205.81L75.5779 201.982C75.5779 201.728 75.2701 201.5 74.8552 201.5H53.2616H31.6679C31.5379 201.488 31.4069 201.507 31.2858 201.556C31.1647 201.605 31.0571 201.682 30.972 201.781Z" fill="white"/>
<path d="M138.425 240.158H137.26C137.033 240.158 136.859 240.038 136.872 239.89L137.421 234.925C137.421 234.791 137.635 234.671 137.863 234.671H139.027C139.254 234.671 139.428 234.791 139.415 234.925L138.866 239.89C138.853 240.038 138.652 240.158 138.425 240.158Z" fill="#153A08"/>
<path d="M165.726 240.158H164.575C164.348 240.158 164.174 240.038 164.187 239.89L164.723 234.925C164.723 234.791 164.95 234.671 165.178 234.671H166.329C166.556 234.671 166.743 234.791 166.717 234.925L166.181 239.89C166.114 240.038 165.967 240.158 165.726 240.158Z" fill="#153A08"/>
<g style="mix-blend-mode:multiply">
<path d="M137.408 466.801C157.209 466.801 173.261 465.639 173.261 464.205C173.261 462.771 157.209 461.608 137.408 461.608C117.607 461.608 101.555 462.771 101.555 464.205C101.555 465.639 117.607 466.801 137.408 466.801Z" fill="#F5F5F5"/>
</g>
<path d="M159.249 460.538C152.905 458.691 145.866 456.322 141.61 453.846C141.49 453.766 141.356 453.726 141.235 453.659V424.939H154.07C155.044 424.881 155.959 424.453 156.629 423.743C157.298 423.033 157.671 422.094 157.671 421.118C157.671 420.142 157.298 419.203 156.629 418.492C155.959 417.782 155.044 417.354 154.07 417.297H141.302V286.383H133.594V417.297H120.839C120.319 417.266 119.797 417.342 119.307 417.52C118.816 417.698 118.368 417.975 117.988 418.332C117.608 418.69 117.306 419.122 117.099 419.601C116.892 420.08 116.786 420.596 116.786 421.118C116.786 421.639 116.892 422.156 117.099 422.635C117.306 423.114 117.608 423.545 117.988 423.903C118.368 424.261 118.816 424.537 119.307 424.715C119.797 424.893 120.319 424.969 120.839 424.939H133.594V453.619C133.473 453.619 133.353 453.726 133.232 453.806C128.909 456.322 121.923 458.691 115.58 460.497C115.151 460.627 114.783 460.906 114.543 461.283C114.302 461.661 114.204 462.112 114.267 462.555C114.33 462.998 114.55 463.404 114.887 463.699C115.223 463.995 115.654 464.16 116.102 464.164H158.727C159.155 464.135 159.56 463.96 159.874 463.669C160.188 463.377 160.393 462.986 160.454 462.562C160.515 462.138 160.429 461.705 160.21 461.337C159.99 460.968 159.651 460.686 159.249 460.538Z" fill="#E0E0E0"/>
<path d="M161.217 273.054H113.626C109.798 273.054 106.694 276.157 106.694 279.986V294.132C106.694 297.961 109.798 301.065 113.626 301.065H161.217C165.045 301.065 168.149 297.961 168.149 294.132V279.986C168.149 276.157 165.045 273.054 161.217 273.054Z" fill="#0B3838"/>
<path d="M113.185 301.078V303.514C113.185 305.521 115.366 307.154 118.043 307.154H156.854C159.53 307.154 161.712 305.521 161.712 303.514V301.078H113.185Z" fill="#092B08"/>
<path opacity="0.3" d="M113 301V303.436C113 305.443 115.181 307.076 117.858 307.076H156.669C159.346 307.076 161.527 305.443 161.527 303.436V301H137.264H113Z" fill="#090C09"/>
</svg>
